<?xml version="1.0" encoding="UTF-8" standalone="no"?>
<!-- Created with Inkscape (http://www.inkscape.org/) -->

<svg
   width="63.374249mm"
   height="7.9374747mm"
   viewBox="0 0 63.374248 7.9374746"
   version="1.1"
   id="svg5"
   inkscape:version="1.1 (c4e8f9ed74, 2021-05-24)"
   sodipodi:docname="lokaalbeslist.svg"
   xmlns:inkscape="http://www.inkscape.org/namespaces/inkscape"
   xmlns:sodipodi="http://sodipodi.sourceforge.net/DTD/sodipodi-0.dtd"
   xmlns="http://www.w3.org/2000/svg"
   xmlns:svg="http://www.w3.org/2000/svg">
  <sodipodi:namedview
     id="namedview7"
     pagecolor="#ffffff"
     bordercolor="#666666"
     borderopacity="1.0"
     inkscape:pageshadow="2"
     inkscape:pageopacity="0.0"
     inkscape:pagecheckerboard="0"
     inkscape:document-units="mm"
     showgrid="false"
     inkscape:zoom="5.7405349"
     inkscape:cx="119.75638"
     inkscape:cy="59.896738"
     inkscape:window-width="1916"
     inkscape:window-height="1040"
     inkscape:window-x="0"
     inkscape:window-y="483"
     inkscape:window-maximized="1"
     inkscape:current-layer="text4257"
     inkscape:rotation="-1" />
  <defs
     id="defs2" />
  <g
     inkscape:label="Layer 1"
     inkscape:groupmode="layer"
     id="layer1"
     transform="translate(-0.34269687,-0.19914379)">
    <g
       aria-label="Lokaal Beslist"
       id="text4257"
       style="font-size:10.5833px;font-family:Roboto;-inkscape-font-specification:Roboto;stroke-width:0.264583">
      <path
         style="color:#000000;-inkscape-font-specification:Roboto;fill:#00d1b2;fill-opacity:1;stroke-width:0.271746;-inkscape-stroke:none"
         d="m 1.8929849,6.8228709 h 3.291778 V 8.1366187 H 0.34269687 V 0.19961869 H 1.8929849 Z"
         id="path7233" />
      <path
         style="color:#000000;-inkscape-font-specification:Roboto;fill:#00d1b2;fill-opacity:1;-inkscape-stroke:none"
         d="m 14.644698,5.8938687 -0.537433,0.537433 v 1.705317 H 12.61382 V 0.19914379 h 1.493445 V 4.5967947 l 0.289387,-0.37207 1.431432,-1.6794783 h 1.793167 l -2.020542,2.3305993 2.196241,3.260773 h -1.715652 z"
         id="path7237" />
      <path
         style="color:#000000;-inkscape-font-specification:Roboto;fill:#00d1b2;fill-opacity:1;-inkscape-stroke:none"
         d="m 21.909004,8.0332667 q -0.103353,-0.201538 -0.149862,-0.50126 -0.5426,0.604612 -1.410762,0.604612 -0.821652,0 -1.364253,-0.475421 -0.537433,-0.475422 -0.537433,-1.19889 0,-0.888831 0.656288,-1.364253 0.661457,-0.475422 1.906855,-0.480589 h 0.687294 v -0.320393 q 0,-0.387572 -0.201537,-0.620116 -0.19637,-0.232543 -0.625283,-0.232543 -0.377237,0 -0.594277,0.180867 -0.211873,0.180867 -0.211873,0.496092 h -1.493444 q 0,-0.485757 0.299722,-0.8991667 0.299722,-0.4134101 0.847491,-0.6459533 0.547768,-0.2377108 1.229895,-0.2377108 1.033525,0 1.638138,0.5219303 0.60978,0.5167625 0.60978,1.4572705 v 2.423617 q 0.0052,0.795815 0.222208,1.204057 v 0.08785 z m -1.235063,-1.038693 q 0.330728,0 0.60978,-0.144694 0.279052,-0.149861 0.41341,-0.397907 v -0.961179 h -0.558104 q -1.121375,0 -1.193722,0.775145 l -0.0052,0.08785 q 0,0.279052 0.19637,0.459919 0.196369,0.180867 0.537433,0.180867 z"
         id="path7239" />
      <path
         style="color:#000000;-inkscape-font-specification:Roboto;fill:#00d1b2;fill-opacity:1;-inkscape-stroke:none"
         d="m 27.530005,8.0332667 q -0.103353,-0.201538 -0.149861,-0.50126 -0.542601,0.604612 -1.410763,0.604612 -0.821652,0 -1.364253,-0.475421 -0.537433,-0.475422 -0.537433,-1.19889 0,-0.888831 0.656288,-1.364253 0.661457,-0.475422 1.906855,-0.480589 h 0.687294 v -0.320393 q 0,-0.387572 -0.201537,-0.620116 -0.19637,-0.232543 -0.625283,-0.232543 -0.377237,0 -0.594277,0.180867 -0.211873,0.180867 -0.211873,0.496092 h -1.493444 q 0,-0.485757 0.299722,-0.8991667 0.299723,-0.4134101 0.847491,-0.6459533 0.547768,-0.2377108 1.229895,-0.2377108 1.033526,0 1.638138,0.5219303 0.60978,0.5167625 0.60978,1.4572705 v 2.423617 q 0.0052,0.795815 0.222208,1.204057 v 0.08785 z m -1.235063,-1.038693 q 0.330728,0 0.60978,-0.144694 0.279052,-0.149861 0.41341,-0.397907 v -0.961179 h -0.558104 q -1.121375,0 -1.193721,0.775145 l -0.0052,0.08785 q 0,0.279052 0.19637,0.459919 0.19637,0.180867 0.537433,0.180867 z"
         id="path7241" />
      <path
         style="color:#000000;-inkscape-font-specification:Roboto;fill:#00d1b2;fill-opacity:1;-inkscape-stroke:none"
         d="M 31.187308,8.1366187 H 29.688696 V 0.19914379 h 1.498612 z"
         id="path7243" />
      <g
         style="fill:none"
         id="g8327"
         transform="matrix(0.26458333,0,0,0.26458333,5.4188324,1.0489869)">
        <g
           id="g8733"
           transform="translate(-2.0498972)">
          <circle
             cx="14"
             cy="14.0001"
             r="12.5378"
             stroke="#404040"
             stroke-width="0.5"
             id="circle8309" />
          <circle
             cx="14"
             cy="14.0001"
             r="8.1513996"
             transform="rotate(29.7563,14,14.0001)"
             stroke="#e4e4e4"
             stroke-width="0.5"
             id="circle8311" />
          <circle
             cx="14.0004"
             cy="14"
             r="5.5066299"
             fill="#ff5454"
             id="circle8313"
             style="fill:#00d1b2;fill-opacity:1" />
          <ellipse
             transform="matrix(-0.866025,-0.5,-0.5,0.866025,20.3941,2.92543)"
             fill="#ff5454"
             id="circle8315"
             cx="0"
             cy="0"
             rx="1.6629927"
             ry="1.66372"
             style="fill:#00d1b2;fill-opacity:1" />
        </g>
      </g>
      <path
         style="color:#000000;font-size:10.5833px;font-family:Roboto;-inkscape-font-specification:Roboto;fill:#000000;stroke-width:0.271746;-inkscape-stroke:none"
         d="M 32.044562,8.1366187 V 0.19961869 h 2.635489 q 1.369421,0 2.077386,0.55602716 0.707965,0.55057455 0.707965,1.61901705 0,0.5832821 -0.284219,1.0302831 -0.28422,0.4415503 -0.790647,0.6486974 0.578774,0.1526341 0.909502,0.6159899 0.335896,0.4633548 0.335896,1.1338567 0,1.1447599 -0.692462,1.7334928 -0.692462,0.5887337 -1.974034,0.5996359 z M 33.59485,4.6805355 v 2.1423354 h 1.32808 q 0.547768,0 0.852658,-0.2725614 0.310058,-0.2780131 0.310058,-0.7631733 0,-1.0902469 -1.069699,-1.1066007 z m 0,-1.1556622 h 1.147213 q 1.173051,-0.021804 1.173051,-0.9866731 0,-0.5396724 -0.299722,-0.7740756 Q 35.320837,1.5242698 34.680051,1.5242698 H 33.59485 Z"
         id="path7245" />
      <path
         style="color:#000000;font-size:10.5833px;font-family:Roboto;-inkscape-font-specification:Roboto;fill:#000000;stroke-width:0.264583;-inkscape-stroke:none"
         d="m 41.273943,8.1366187 q -1.229895,0 -2.005039,-0.754474 -0.769976,-0.754473 -0.769976,-2.010206 v -0.144694 q 0,-0.842323 0.32556,-1.503779 0.325561,-0.666624 0.919838,-1.02319 0.599444,-0.361734 1.364253,-0.361734 1.147213,0 1.803502,0.723467 0.661456,0.723468 0.661456,2.051548 v 0.60978 h -3.560495 q 0.07235,0.547769 0.434081,0.878497 0.366901,0.330728 0.925005,0.330728 0.862994,0 1.348751,-0.625283 l 0.733803,0.821653 q -0.335896,0.475421 -0.909503,0.744138 -0.573606,0.263549 -1.271236,0.263549 z m -0.170531,-4.588853 q -0.444416,0 -0.723468,0.299723 -0.273884,0.299722 -0.351399,0.857826 h 2.077386 v -0.118856 q -0.01033,-0.496092 -0.268716,-0.764808 -0.258382,-0.273885 -0.733803,-0.273885 z"
         id="path7247" />
      <path
         style="color:#000000;font-size:10.5833px;font-family:Roboto;-inkscape-font-specification:Roboto;fill:#000000;stroke-width:0.264583;-inkscape-stroke:none"
         d="m 47.449257,6.4881457 q 0,-0.273884 -0.273884,-0.428913 -0.268716,-0.160196 -0.868161,-0.284219 -1.994704,-0.418578 -1.994704,-1.694982 0,-0.744138 0.614947,-1.240231 0.620116,-0.501259 1.617468,-0.501259 1.064531,0 1.700149,0.501259 0.640786,0.50126 0.640786,1.302242 h -1.493445 q 0,-0.320392 -0.206705,-0.527097 -0.206705,-0.211873 -0.645953,-0.211873 -0.377237,0 -0.583942,0.170531 -0.206705,0.170532 -0.206705,0.434081 0,0.248046 0.232543,0.403075 0.237711,0.149861 0.795815,0.263549 0.558104,0.10852 0.940508,0.248046 1.183386,0.434081 1.183386,1.503779 0,0.764809 -0.656288,1.240231 -0.656289,0.470254 -1.694982,0.470254 -0.702797,0 -1.250565,-0.248046 -0.542601,-0.253214 -0.852659,-0.687295 -0.310057,-0.439248 -0.310057,-0.945675 h 1.415929 q 0.02067,0.397907 0.294555,0.60978 0.273884,0.211872 0.733803,0.211872 0.428913,0 0.645953,-0.160196 0.222208,-0.165364 0.222208,-0.428913 z"
         id="path7249" />
      <path
         style="color:#000000;font-size:10.5833px;font-family:Roboto;-inkscape-font-specification:Roboto;fill:#000000;stroke-width:0.264583;-inkscape-stroke:none"
         d="M 51.438665,8.1366187 H 49.940054 V 0.19914399 h 1.498611 z"
         id="path7251" />
      <path
         style="color:#000000;font-size:10.5833px;font-family:Roboto;-inkscape-font-specification:Roboto;fill:#000000;stroke-width:0.264583;-inkscape-stroke:none"
         d="m 54.244686,8.1366187 h -1.498612 v -5.591372 h 1.498612 z m -1.586461,-7.038307 q 0,-0.33589705 0.222208,-0.55293675 0.227375,-0.21704096 0.614947,-0.21704096 0.382405,0 0.60978,0.21704096 0.227376,0.2170397 0.227376,0.55293675 0,0.341063 -0.232543,0.558103 -0.227376,0.217041 -0.604613,0.217041 -0.377237,0 -0.60978,-0.217041 -0.227375,-0.21704 -0.227375,-0.558103 z"
         id="path7253" />
      <path
         style="color:#000000;font-size:10.5833px;font-family:Roboto;-inkscape-font-specification:Roboto;fill:#000000;stroke-width:0.264583;-inkscape-stroke:none"
         d="m 58.502812,6.4881457 q 0,-0.273884 -0.273884,-0.428913 -0.268717,-0.160196 -0.868162,-0.284219 -1.994704,-0.418578 -1.994704,-1.694982 0,-0.744138 0.614948,-1.240231 0.620115,-0.501259 1.617467,-0.501259 1.064531,0 1.700149,0.501259 0.640786,0.50126 0.640786,1.302242 h -1.493444 q 0,-0.320392 -0.206705,-0.527097 -0.206705,-0.211873 -0.645953,-0.211873 -0.377237,0 -0.583942,0.170531 -0.206705,0.170532 -0.206705,0.434081 0,0.248046 0.232543,0.403075 0.237711,0.149861 0.795814,0.263549 0.558104,0.10852 0.940508,0.248046 1.183387,0.434081 1.183387,1.503779 0,0.764809 -0.656289,1.240231 -0.656288,0.470254 -1.694981,0.470254 -0.702797,0 -1.250566,-0.248046 -0.542601,-0.253214 -0.852658,-0.687295 -0.310058,-0.439248 -0.310058,-0.945675 h 1.41593 q 0.02067,0.397907 0.294555,0.60978 0.273884,0.211872 0.733803,0.211872 0.428913,0 0.645953,-0.160196 0.222208,-0.165364 0.222208,-0.428913 z"
         id="path7255" />
      <path
         style="color:#000000;font-size:10.5833px;font-family:Roboto;-inkscape-font-specification:Roboto;fill:#000000;stroke-width:0.264583;-inkscape-stroke:none"
         d="m 62.704093,1.0673017 v 1.374588 h 0.956011 v 1.095537 h -0.956011 v 2.790519 q 0,0.310057 0.118855,0.444415 0.118855,0.134359 0.454751,0.134359 0.248046,0 0.439248,-0.03617 v 1.131711 q -0.439248,0.134358 -0.904334,0.134358 -1.570959,0 -1.601965,-1.586461 v -3.012727 h -0.816485 v -1.095537 h 0.816485 v -1.374588 z"
         id="path7257" />
    </g>
  </g>
</svg>
